<svg width="128" height="128" version="1.1" viewBox="0 0 33.867 33.867" xmlns="http://www.w3.org/2000/svg">
<g transform="translate(-34.356 -47.349)">
<g transform="translate(5.2917 -1.0583)">
<g fill="#c0c0c0">
<rect x="52.348" y="55.815" width="1.0583" height="24.325"/>
<rect x="38.589" y="53.699" width="1.0583" height="1.0583"/>
<rect x="39.648" y="52.64" width="1.0583" height="1.0583"/>
<rect x="40.706" y="51.582" width="1.0583" height="1.0583"/>
<rect x="36.473" y="53.699" width="1.0583" height="1.0583"/>
<rect x="37.531" y="52.64" width="1.0583" height="1.0583"/>
<rect x="38.589" y="51.582" width="1.0583" height="1.0583"/>
<rect x="40.706" y="53.699" width="1.0583" height="1.0583"/>
<rect x="41.764" y="52.64" width="1.0583" height="1.0583"/>
<rect x="42.823" y="51.582" width="1.0583" height="1.0583"/>
<rect x="42.823" y="53.699" width="1.0583" height="1.0583"/>
<rect x="43.881" y="52.64" width="1.0583" height="1.0583"/>
<rect x="44.939" y="51.582" width="1.0583" height="1.0583"/>
<rect x="44.939" y="53.699" width="1.0583" height="1.0583"/>
<rect x="45.998" y="52.64" width="1.0583" height="1.0583"/>
<rect x="47.056" y="51.582" width="1.0583" height="1.0583"/>
<rect x="47.056" y="53.699" width="1.0583" height="1.0583"/>
<rect x="48.114" y="52.64" width="1.0583" height="1.0583"/>
<rect x="49.173" y="51.582" width="1.0583" height="1.0583"/>
<rect x="49.173" y="53.699" width="1.0583" height="1.0583"/>
<rect x="50.231" y="52.64" width="1.0583" height="1.0583"/>
<rect x="51.289" y="51.582" width="1.0583" height="1.0583"/>
<rect x="51.289" y="53.699" width="1.0583" height="1.0583"/>
<rect x="52.348" y="52.64" width="1.0583" height="1.0583"/>
<rect x="53.406" y="51.582" width="1.0583" height="1.0583"/>
<rect x="35.414" y="56.874" width="1.0583" height="1.0583"/>
<rect x="35.414" y="58.99" width="1.0583" height="1.0583"/>
<rect x="35.414" y="61.107" width="1.0583" height="1.0583"/>
<rect x="35.414" y="63.224" width="1.0583" height="1.0583"/>
<rect x="35.414" y="65.34" width="1.0583" height="1.0583"/>
<rect x="35.414" y="67.457" width="1.0583" height="1.0583"/>
<rect x="35.414" y="69.574" width="1.0583" height="1.0583"/>
<rect x="35.414" y="71.69" width="1.0583" height="1.0583"/>
<rect x="35.414" y="73.807" width="1.0583" height="1.0583"/>
<rect x="35.414" y="75.924" width="1.0583" height="1.0583"/>
<rect x="35.414" y="78.04" width="1.0583" height="1.0583"/>
<rect x="36.473" y="55.815" width="1.0583" height="1.0583"/>
<rect x="38.589" y="55.815" width="1.0583" height="1.0583"/>
<rect x="40.706" y="55.815" width="1.0583" height="1.0583"/>
<rect x="42.823" y="55.815" width="1.0583" height="1.0583"/>
<rect x="44.939" y="55.815" width="1.0583" height="1.0583"/>
<rect x="47.056" y="55.815" width="1.0583" height="1.0583"/>
<rect x="49.173" y="55.815" width="1.0583" height="1.0583"/>
<rect x="36.473" y="79.099" width="1.0583" height="1.0583"/>
<rect x="38.589" y="79.099" width="1.0583" height="1.0583"/>
<rect x="40.706" y="79.099" width="1.0583" height="1.0583"/>
<rect x="42.823" y="79.099" width="1.0583" height="1.0583"/>
<rect x="44.939" y="79.099" width="1.0583" height="1.0583"/>
<rect x="47.056" y="79.099" width="1.0583" height="1.0583"/>
<rect x="49.173" y="79.099" width="1.0583" height="1.0583"/>
<rect x="51.289" y="79.099" width="1.0583" height="1.0583"/>
<rect x="51.289" y="55.815" width="1.0583" height="1.0583"/>
<rect x="51.289" y="57.932" width="1.0583" height="1.0583"/>
<rect x="51.289" y="60.049" width="1.0583" height="1.0583"/>
<rect x="51.289" y="62.165" width="1.0583" height="1.0583"/>
<rect x="51.289" y="64.282" width="1.0583" height="1.0583"/>
<rect x="51.289" y="66.399" width="1.0583" height="1.0583"/>
<rect x="51.289" y="68.515" width="1.0583" height="1.0583"/>
<rect x="51.289" y="70.632" width="1.0583" height="1.0583"/>
<rect x="51.289" y="72.749" width="1.0583" height="1.0583"/>
<rect x="51.289" y="74.865" width="1.0583" height="1.0583"/>
<rect x="51.289" y="76.982" width="1.0583" height="1.0583"/>
<rect x="37.531" y="67.457" width="1.0583" height="1.0583"/>
<rect x="39.648" y="67.457" width="1.0583" height="1.0583"/>
<rect x="41.764" y="67.457" width="1.0583" height="1.0583"/>
<rect x="43.881" y="67.457" width="1.0583" height="1.0583"/>
<rect x="45.998" y="67.457" width="1.0583" height="1.0583"/>
<rect x="48.114" y="67.457" width="1.0583" height="1.0583"/>
<rect x="50.231" y="67.457" width="1.0583" height="1.0583"/>
<rect x="39.648" y="58.99" width="1.0583" height="1.0583"/>
<rect x="41.764" y="58.99" width="1.0583" height="1.0583"/>
<rect x="43.881" y="58.99" width="1.0583" height="1.0583"/>
<rect x="45.998" y="58.99" width="1.0583" height="1.0583"/>
<rect x="48.114" y="58.99" width="1.0583" height="1.0583"/>
<rect x="49.173" y="60.049" width="1.0583" height="1.0583"/>
<rect x="48.114" y="61.107" width="1.0583" height="1.0583"/>
<rect x="49.173" y="62.165" width="1.0583" height="1.0583"/>
<rect x="48.114" y="63.224" width="1.0583" height="1.0583"/>
<rect x="49.173" y="64.282" width="1.0583" height="1.0583"/>
<rect x="48.114" y="65.34" width="1.0583" height="1.0583"/>
<rect x="45.998" y="65.34" width="1.0583" height="1.0583"/>
<rect x="43.881" y="65.34" width="1.0583" height="1.0583"/>
<rect x="41.764" y="65.34" width="1.0583" height="1.0583"/>
<rect x="39.648" y="65.34" width="1.0583" height="1.0583"/>
<rect x="47.056" y="60.049" width="1.0583" height="1.0583"/>
<rect x="47.056" y="62.165" width="1.0583" height="1.0583"/>
<rect x="47.056" y="64.282" width="1.0583" height="1.0583"/>
<rect x="38.589" y="60.049" width="1.0583" height="1.0583"/>
<rect x="38.589" y="64.282" width="1.0583" height="1.0583"/>
<rect x="39.648" y="61.107" width="1.0583" height="1.0583"/>
<rect x="38.589" y="62.165" width="1.0583" height="1.0583"/>
<rect x="39.648" y="63.224" width="1.0583" height="1.0583"/>
<rect x="40.706" y="64.282" width="1.0583" height="1.0583"/>
<rect x="42.823" y="64.282" width="1.0583" height="1.0583"/>
<rect x="44.939" y="64.282" width="1.0583" height="1.0583"/>
<rect x="39.635" y="70.632" width="1.0583" height="1.0583"/>
<rect x="41.751" y="70.632" width="1.0583" height="1.0583"/>
<rect x="43.868" y="70.632" width="1.0583" height="1.0583"/>
<rect x="45.985" y="70.632" width="1.0583" height="1.0583"/>
<rect x="48.101" y="70.632" width="1.0583" height="1.0583"/>
<rect x="49.16" y="71.69" width="1.0583" height="1.0583"/>
<rect x="48.101" y="72.749" width="1.0583" height="1.0583"/>
<rect x="49.16" y="73.807" width="1.0583" height="1.0583"/>
<rect x="48.101" y="74.865" width="1.0583" height="1.0583"/>
<rect x="49.16" y="75.924" width="1.0583" height="1.0583"/>
<rect x="48.101" y="76.982" width="1.0583" height="1.0583"/>
<rect x="45.985" y="76.982" width="1.0583" height="1.0583"/>
<rect x="43.868" y="76.982" width="1.0583" height="1.0583"/>
<rect x="41.751" y="76.982" width="1.0583" height="1.0583"/>
<rect x="39.635" y="76.982" width="1.0583" height="1.0583"/>
<rect x="47.043" y="71.69" width="1.0583" height="1.0583"/>
<rect x="47.043" y="73.807" width="1.0583" height="1.0583"/>
<rect x="47.043" y="75.924" width="1.0583" height="1.0583"/>
<rect x="38.576" y="71.69" width="1.0583" height="1.0583"/>
<rect x="38.576" y="75.924" width="1.0583" height="1.0583"/>
<rect x="39.635" y="72.749" width="1.0583" height="1.0583"/>
<rect x="38.576" y="73.807" width="1.0583" height="1.0583"/>
<rect x="39.635" y="74.865" width="1.0583" height="1.0583"/>
<rect x="40.693" y="75.924" width="1.0583" height="1.0583"/>
<rect x="42.81" y="75.924" width="1.0583" height="1.0583"/>
<rect x="44.926" y="75.924" width="1.0583" height="1.0583"/>
</g>
<g fill="#ff0">
<rect x="39.648" y="53.699" width="1.0583" height="1.0583"/>
<rect x="40.706" y="52.64" width="1.0583" height="1.0583"/>
<rect x="41.764" y="51.582" width="1.0583" height="1.0583"/>
<rect x="37.531" y="53.699" width="1.0583" height="1.0583"/>
<rect x="38.589" y="52.64" width="1.0583" height="1.0583"/>
<rect x="39.648" y="51.582" width="1.0583" height="1.0583"/>
<rect x="41.764" y="53.699" width="1.0583" height="1.0583"/>
<rect x="42.823" y="52.64" width="1.0583" height="1.0583"/>
<rect x="43.881" y="51.582" width="1.0583" height="1.0583"/>
<rect x="43.881" y="53.699" width="1.0583" height="1.0583"/>
<rect x="44.939" y="52.64" width="1.0583" height="1.0583"/>
<rect x="45.998" y="51.582" width="1.0583" height="1.0583"/>
<rect x="45.998" y="53.699" width="1.0583" height="1.0583"/>
<rect x="47.056" y="52.64" width="1.0583" height="1.0583"/>
<rect x="48.114" y="51.582" width="1.0583" height="1.0583"/>
<rect x="48.114" y="53.699" width="1.0583" height="1.0583"/>
<rect x="49.173" y="52.64" width="1.0583" height="1.0583"/>
<rect x="50.231" y="51.582" width="1.0583" height="1.0583"/>
<rect x="50.231" y="53.699" width="1.0583" height="1.0583"/>
<rect x="51.289" y="52.64" width="1.0583" height="1.0583"/>
<rect x="52.348" y="51.582" width="1.0583" height="1.0583"/>
<rect x="52.348" y="53.699" width="1.0583" height="1.0583"/>
<rect x="53.406" y="52.64" width="1.0583" height="1.0583"/>
<rect x="54.464" y="51.582" width="1.0583" height="1.0583"/>
<rect x="35.414" y="55.815" width="1.0583" height="1.0583"/>
<rect x="35.414" y="57.932" width="1.0583" height="1.0583"/>
<rect x="35.414" y="60.049" width="1.0583" height="1.0583"/>
<rect x="35.414" y="62.165" width="1.0583" height="1.0583"/>
<rect x="35.414" y="64.282" width="1.0583" height="1.0583"/>
<rect x="35.414" y="66.399" width="1.0583" height="1.0583"/>
<rect x="35.414" y="68.515" width="1.0583" height="1.0583"/>
<rect x="35.414" y="70.632" width="1.0583" height="1.0583"/>
<rect x="35.414" y="72.749" width="1.0583" height="1.0583"/>
<rect x="35.414" y="74.865" width="1.0583" height="1.0583"/>
<rect x="35.414" y="76.982" width="1.0583" height="1.0583"/>
<rect x="35.414" y="79.099" width="1.0583" height="1.0583"/>
<rect x="37.531" y="55.815" width="1.0583" height="1.0583"/>
<rect x="39.648" y="55.815" width="1.0583" height="1.0583"/>
<rect x="41.764" y="55.815" width="1.0583" height="1.0583"/>
<rect x="43.881" y="55.815" width="1.0583" height="1.0583"/>
<rect x="45.998" y="55.815" width="1.0583" height="1.0583"/>
<rect x="48.114" y="55.815" width="1.0583" height="1.0583"/>
<rect x="50.231" y="55.815" width="1.0583" height="1.0583"/>
<rect x="37.531" y="79.099" width="1.0583" height="1.0583"/>
<rect x="39.648" y="79.099" width="1.0583" height="1.0583"/>
<rect x="41.764" y="79.099" width="1.0583" height="1.0583"/>
<rect x="43.881" y="79.099" width="1.0583" height="1.0583"/>
<rect x="45.998" y="79.099" width="1.0583" height="1.0583"/>
<rect x="48.114" y="79.099" width="1.0583" height="1.0583"/>
<rect x="50.231" y="79.099" width="1.0583" height="1.0583"/>
<rect x="51.289" y="56.874" width="1.0583" height="1.0583"/>
<rect x="51.289" y="58.99" width="1.0583" height="1.0583"/>
<rect x="51.289" y="61.107" width="1.0583" height="1.0583"/>
<rect x="51.289" y="63.224" width="1.0583" height="1.0583"/>
<rect x="51.289" y="65.34" width="1.0583" height="1.0583"/>
<rect x="51.289" y="67.457" width="1.0583" height="1.0583"/>
<rect x="51.289" y="69.574" width="1.0583" height="1.0583"/>
<rect x="51.289" y="71.69" width="1.0583" height="1.0583"/>
<rect x="51.289" y="73.807" width="1.0583" height="1.0583"/>
<rect x="51.289" y="75.924" width="1.0583" height="1.0583"/>
<rect x="51.289" y="78.04" width="1.0583" height="1.0583"/>
<rect x="36.473" y="67.457" width="1.0583" height="1.0583"/>
<rect x="38.589" y="67.457" width="1.0583" height="1.0583"/>
<rect x="40.706" y="67.457" width="1.0583" height="1.0583"/>
<rect x="42.823" y="67.457" width="1.0583" height="1.0583"/>
<rect x="44.939" y="67.457" width="1.0583" height="1.0583"/>
<rect x="47.056" y="67.457" width="1.0583" height="1.0583"/>
<rect x="49.173" y="67.457" width="1.0583" height="1.0583"/>
<rect x="38.589" y="58.99" width="1.0583" height="1.0583"/>
<rect x="40.706" y="58.99" width="1.0583" height="1.0583"/>
<rect x="42.823" y="58.99" width="1.0583" height="1.0583"/>
<rect x="44.939" y="58.99" width="1.0583" height="1.0583"/>
<rect x="47.056" y="58.99" width="1.0583" height="1.0583"/>
<rect x="48.114" y="60.049" width="1.0583" height="1.0583"/>
<rect x="39.648" y="60.049" width="1.0583" height="1.0583"/>
<rect x="48.114" y="62.165" width="1.0583" height="1.0583"/>
<rect x="47.056" y="63.224" width="1.0583" height="1.0583"/>
<rect x="48.114" y="64.282" width="1.0583" height="1.0583"/>
<rect x="47.056" y="65.34" width="1.0583" height="1.0583"/>
<rect x="44.939" y="65.34" width="1.0583" height="1.0583"/>
<rect x="42.823" y="65.34" width="1.0583" height="1.0583"/>
<rect x="40.706" y="65.34" width="1.0583" height="1.0583"/>
<rect x="38.589" y="65.34" width="1.0583" height="1.0583"/>
<rect x="47.056" y="61.107" width="1.0583" height="1.0583"/>
<rect x="39.648" y="64.282" width="1.0583" height="1.0583"/>
<rect x="49.173" y="58.99" width="1.0583" height="1.0583"/>
<rect x="49.173" y="61.107" width="1.0583" height="1.0583"/>
<rect x="49.173" y="63.224" width="1.0583" height="1.0583"/>
<rect x="49.173" y="65.34" width="1.0583" height="1.0583"/>
<rect x="45.998" y="64.282" width="1.0583" height="1.0583"/>
<rect x="43.881" y="64.282" width="1.0583" height="1.0583"/>
<rect x="41.764" y="64.282" width="1.0583" height="1.0583"/>
<rect x="38.589" y="63.224" width="1.0583" height="1.0583"/>
<rect x="38.589" y="61.107" width="1.0583" height="1.0583"/>
<rect x="39.648" y="62.165" width="1.0583" height="1.0583"/>
<rect x="38.576" y="70.632" width="1.0583" height="1.0583"/>
<rect x="40.693" y="70.632" width="1.0583" height="1.0583"/>
<rect x="42.81" y="70.632" width="1.0583" height="1.0583"/>
<rect x="44.926" y="70.632" width="1.0583" height="1.0583"/>
<rect x="47.043" y="70.632" width="1.0583" height="1.0583"/>
<rect x="48.101" y="71.69" width="1.0583" height="1.0583"/>
<rect x="39.635" y="71.69" width="1.0583" height="1.0583"/>
<rect x="48.101" y="73.807" width="1.0583" height="1.0583"/>
<rect x="47.043" y="74.865" width="1.0583" height="1.0583"/>
<rect x="48.101" y="75.924" width="1.0583" height="1.0583"/>
<rect x="47.043" y="76.982" width="1.0583" height="1.0583"/>
<rect x="44.926" y="76.982" width="1.0583" height="1.0583"/>
<rect x="42.81" y="76.982" width="1.0583" height="1.0583"/>
<rect x="40.693" y="76.982" width="1.0583" height="1.0583"/>
<rect x="38.576" y="76.982" width="1.0583" height="1.0583"/>
<rect x="47.043" y="72.749" width="1.0583" height="1.0583"/>
<rect x="39.635" y="75.924" width="1.0583" height="1.0583"/>
<rect x="49.16" y="70.632" width="1.0583" height="1.0583"/>
<rect x="49.16" y="72.749" width="1.0583" height="1.0583"/>
<rect x="49.16" y="74.865" width="1.0583" height="1.0583"/>
<rect x="49.16" y="76.982" width="1.0583" height="1.0583"/>
<rect x="45.985" y="75.924" width="1.0583" height="1.0583"/>
<rect x="43.868" y="75.924" width="1.0583" height="1.0583"/>
<rect x="41.751" y="75.924" width="1.0583" height="1.0583"/>
<rect x="38.576" y="74.865" width="1.0583" height="1.0583"/>
<rect x="38.576" y="72.749" width="1.0583" height="1.0583"/>
<rect x="39.635" y="73.807" width="1.0583" height="1.0583"/>
</g>
<g fill="#808000">
<path d="m37.518 68.515h12.7v1.0583h-12.7zm-1.0453 7e-6h1.0583v9.525h-1.0583z"/>
<path d="m37.531 56.874h12.7v1.0583h-12.7zm-1.0583 0h1.0583v9.525h-1.0583z"/>
<path d="m55.523 52.64h1.0583v24.325h-1.0583zm-1.0583 1.0583h1.0583v24.325h-1.0583zm-1.0583 1.0583h1.0583v24.325h-1.0583z"/>
<rect x="41.751" y="72.749" width="4.2333" height="2.1167"/>
<rect x="41.764" y="61.107" width="4.2333" height="2.1167"/>
</g>
<g fill="#fff">
<path d="m55.523 51.582h1.0583v1.0583h-1.0583zm-1.0583 1.0583h1.0583v1.0583h-1.0583zm-1.0583 1.0583h1.0583v1.0583h-1.0583zm-17.992 1.0583h17.992v1.0583h-17.992z"/>
<path d="m38.589 57.932h11.642v1.0583h-11.642zm-1.0583 0h1.0583v8.4667h-1.0583z"/>
<path d="m38.576 69.574h11.642v1.0583h-11.642zm-1.0583 0h1.0583v8.4667h-1.0583z"/>
<rect x="40.706" y="63.224" width="6.35" height="1.0583"/>
<rect x="40.693" y="74.865" width="6.35" height="1.0583"/>
</g>
<path d="m56.581 50.524h1.0583v26.458h-1.0583zm-17.992 0h17.992v1.0583h-17.992zm16.933 26.442h1.0583v1.0583h-1.0583zm-1.0583 1.0583h1.0583v1.0583h-1.0583zm-1.0583 1.0583h1.0583v1.0583h-1.0583zm-15.875-27.5h1.0583v1.0583h-1.0583zm-1.0583 1.0583h1.0583v1.0583h-1.0583zm-1.0583 1.0583h1.0583v1.0583h-1.0583zm0 26.458h17.992v1.0583h-17.992zm-1.0583-25.4h1.0583v26.458h-1.0583z"/>
<path d="m50.231 68.515h1.0583v9.525h-1.0583zm-13.758 9.525h14.817v1.0583h-14.817z"/>
<path d="m50.231 56.874h1.0583v9.525h-1.0583zm-13.758 9.525h14.817v1.0583h-14.817z"/>
<path d="m45.998 61.107h1.0583v2.1167h-1.0583zm-5.2917 0h1.0583v2.1167h-1.0583zm-4e-6 -1.0583h6.35v1.0583h-6.35z"/>
<path d="m45.985 72.749h1.0583v2.1167h-1.0583zm-5.2917 0h1.0583v2.1167h-1.0583zm-4e-6 -1.0583h6.35v1.0583h-6.35z"/>
</g>
</g>
</svg>